<svg width="150" height="21" viewBox="0 0 150 21" fill="none" xmlns="http://www.w3.org/2000/svg">
<path d="M119.4 2.25332H123.1H123.3H127.9C129.9 2.25332 131.5 3.85332 131.5 5.85332V14.8533C131.5 16.8533 129.9 18.4533 127.9 18.4533H123.3H123H119.3C117.3 18.4533 115.7 16.8533 115.7 14.8533V5.85332C115.8 3.85332 117.4 2.25332 119.4 2.25332ZM127.2 14.1533V6.55332C127.2 6.05332 126.8 5.55332 126.2 5.55332H123.2H123H120.8C120.3 5.55332 119.8 5.95332 119.8 6.55332V14.1533C119.8 14.6533 120.2 15.1533 120.8 15.1533H123H123.2H126.2C126.8 15.1533 127.2 14.6533 127.2 14.1533ZM106.4 15.1533H114.2L113.5 18.4533H104.9C102.9 18.4533 101.3 16.8533 101.3 14.8533V5.85332C101.3 3.85332 102.9 2.25332 104.9 2.25332H114.2L113.5 5.55332H106.4C105.9 5.55332 105.5 5.95332 105.5 6.35332V14.1533C105.5 14.7533 105.9 15.1533 106.4 15.1533ZM78.8 2.25332H79.6H82.9V18.4533H78.8V5.85332L76 18.4533H70.6L67.9 5.85332V18.3533H63.8V2.25332H67.1H67.9H70.8L73.3 13.7533L75.8 2.25332H78.8ZM89.9 8.65332H98.1L97.3 11.9533H89.8V14.2533C89.9 14.6533 90.3 15.0533 90.8 15.0533H99.4L98.7 18.3533H89.3C87.3 18.3533 85.7 16.7533 85.7 14.7533V5.75332C85.7 3.75332 87.3 2.15332 89.3 2.15332H99.4L98.7 5.45332H90.8C90.3 5.45332 89.8 5.85332 89.8 6.45332L89.9 8.65332ZM56.5 2.25332H60.7V18.4533H56.5V2.25332ZM31.1 6.55332V14.1533C31.1 14.6533 31.5 15.1533 32.1 15.1533H39.9L39.2 18.4533H30.6C28.6 18.4533 27 16.8533 27 14.8533V5.85332C27 3.85332 28.6 2.25332 30.6 2.25332H39.9L39.2 5.55332H32.1C31.5 5.55332 31.1 5.95332 31.1 6.55332ZM54.4 15.1533L53.7 18.4533H45.1C43.1 18.4533 41.5 16.8533 41.5 14.8533V2.25332H45.7V14.2533C45.7 14.7533 46.2 15.1533 46.7 15.1533H54.4ZM134.2 2.25332H136.7H140.6L145.7 14.5533V2.25332H149.9V18.4533H143.4L138.3 6.15332V18.4533H134.1L134.2 2.25332Z" fill="white"/>
<path d="M15.3 14.5536C15.3 13.2536 16.5 12.2536 17.8 12.5536C18.6 12.7536 19.3 13.3536 19.4 14.1536C19.7 15.4536 18.6 16.6536 17.4 16.6536C16.2 16.6536 15.3 15.6536 15.3 14.5536ZM0 14.5536C0 13.2536 1.2 12.2536 2.5 12.5536C3.3 12.7536 4 13.3536 4.1 14.1536C4.4 15.4536 3.3 16.6536 2.1 16.6536C1 16.6536 0 15.6536 0 14.5536ZM7.7 2.05357C7.7 0.753572 8.9 -0.246428 10.2 0.0535717C11 0.253572 11.7 0.853572 11.8 1.65357C12 2.95357 11 4.15357 9.8 4.15357C8.6 4.15357 7.7 3.15357 7.7 2.05357ZM15.3 6.15357C15.3 4.85357 16.5 3.85357 17.8 4.15357C18.6 4.35357 19.3 4.95357 19.4 5.75357C19.7 7.05357 18.6 8.25357 17.4 8.25357C16.2 8.25357 15.3 7.35357 15.3 6.15357ZM7.7 10.3536C7.7 9.05357 8.9 8.05357 10.2 8.35357C11 8.55357 11.7 9.15357 11.8 9.95357C12 11.2536 11 12.4536 9.8 12.4536C8.6 12.4536 7.7 11.5536 7.7 10.3536ZM0 6.15357C0 4.85357 1.2 3.85357 2.5 4.15357C3.3 4.35357 4 4.95357 4.1 5.75357C4.4 7.05357 3.3 8.25357 2.1 8.25357C1 8.25357 0 7.35357 0 6.15357ZM7.7 18.6536C7.7 17.3536 8.9 16.3536 10.2 16.6536C11 16.8536 11.7 17.4536 11.8 18.2536C12 19.5536 11 20.7536 9.8 20.7536C8.6 20.7536 7.7 19.8536 7.7 18.6536Z" fill="white"/>
</svg>
