<svg width="631" height="150" viewBox="0 0 631 150" fill="none" xmlns="http://www.w3.org/2000/svg">
<path d="M38.4955 88.7773V88.7625H95.1252L105.01 59.1699H0.306641V88.7773H38.4955Z" fill="white"/>
<path d="M630.855 0.777741H590.548L545.537 59.1185H532.4V0.777741H494.211V149.281L494.215 149.285H532.4V88.8222H545.537L590.333 149.285H630.644L577.363 73.9703L630.855 0.777741Z" fill="white"/>
<path d="M494.212 149.285V149.281L437.994 0.777741H395.564L339.342 149.285H380.712L390.26 122.767H390.449L399.897 95.1852H399.805L416.779 45.3296L433.749 95.1852H433.731L443.183 122.767H443.297L452.845 149.285H494.212Z" fill="white"/>
<path d="M312.824 149.285L369.046 0.777741H327.676L291.609 104.733L255.542 0.777741H214.172L270.394 149.285H312.824Z" fill="white"/>
<path d="M245.995 119.584H168.558V0.776765H130.373V149.284H245.995V119.584Z" fill="white"/>
<path d="M38.4955 30.4794H118.055V0.779434H0.306641V30.5498H38.4955V30.4794Z" fill="white"/>
<path d="M0.306641 149.285H118.051V119.6H0.306641V149.285Z" fill="white"/>
<path d="M418.832 97.8246L408.873 127.421H470.325V97.8246H418.832Z" fill="white"/>
</svg>
