<svg width="2065" height="512" viewBox="0 0 2065 512" fill="none" xmlns="http://www.w3.org/2000/svg">
<path fill-rule="evenodd" clip-rule="evenodd" d="M139 109.5L256.5 49.5L371 109L372.345 236.996C363.17 239.256 354.027 241.842 345 244.779V242L326 234.5V251.564C318.689 254.42 311.499 257.528 304.479 260.901C270.083 277.429 238.796 300.795 217.713 333.08C197.326 364.3 187.265 402.684 191.936 448.626C173.075 442.353 155.238 433.344 139 421.891V109.5ZM208 111.5L228 102V133L208 143V111.5ZM227 161L208 169V200.5L227 193V161ZM183 178L164 186V217.5L183 210V178ZM182.5 291L164 299V330L182.5 323.5V291ZM208 285L226.5 277V309.5L208 316V285ZM183 234.5L164 242V274L183 267V234.5ZM208 226.5L227 219V251.5L208 258.5V226.5ZM301 226.5L282 219V251.5L301 258.5V226.5ZM345 187L326 179V211L345 218.5V187ZM282 162L301 170V201.5L282 194V162ZM184 120.5L164 130V161.5L184 151.5V120.5ZM301 111.5L281 102V133L301 143V111.5ZM325 120.5L345 130V161.5L325 151.5V120.5Z" fill="#15333B"/>
<path fill-rule="evenodd" clip-rule="evenodd" d="M477.744 224.085C462.253 115.49 368.876 32 256 32C132.288 32 32 132.288 32 256C32 359.381 102.035 446.405 197.248 472.216C205.732 492.472 223.352 504.581 241.41 511.591C106.813 504.029 0 392.488 0 256C0 114.615 114.615 0 256 0C386.994 0 495.009 98.3875 510.178 225.297C500.14 224.464 489.248 224.038 477.744 224.085Z" fill="#15333B"/>
<path fill-rule="evenodd" clip-rule="evenodd" d="M53 256C53 196.686 78.4382 143.314 119 106.198V405.801C78.4382 368.685 53 315.313 53 256ZM456.6 224.686C449.231 177.094 425.331 134.965 390.952 104.35L392.3 232.592C414.289 228.284 436.11 225.755 456.6 224.686Z" fill="url(#paint0_linear_185_7)"/>
<path fill-rule="evenodd" clip-rule="evenodd" d="M511.7 243.5C511.899 247.642 512 251.809 512 256C512 374.022 432.134 473.39 323.5 503.008C298.187 505.269 250.315 504.113 225.629 481.623L227.5 482.51C362 442.5 483.091 246.293 457 277.51C394.877 351.839 286.437 439.448 210.523 452.674C210.515 452.616 210.507 452.558 210.5 452.5C187.5 273.5 404.5 233.5 511.7 243.5Z" fill="#00994C"/>
<path fill-rule="evenodd" clip-rule="evenodd" d="M414.392 97.6081L437.019 74.9807C436.816 74.7771 436.612 74.5738 436.408 74.3709C412.764 50.8863 384.76 32.2419 353.967 19.4869C322.908 6.62164 289.618 0 256 0V32C317.856 32 373.856 57.0721 414.392 97.6081Z" fill="#BE132D"/>
<path fill-rule="evenodd" clip-rule="evenodd" d="M75.6083 74.355C75.4195 74.5425 75.231 74.7303 75.0428 74.9184C75.022 74.9391 75.0012 74.9599 74.9805 74.9807L97.6079 97.6081C138.144 57.0721 194.144 32 256 32L256 1.19355e-10C222.382 -3.24617e-05 189.092 6.62159 158.033 19.4868C127.247 32.2389 99.2486 50.8778 75.6083 74.355Z" fill="#002F6C"/>
<path d="M636 499.214V439.942H647.003V489.9H677.979V499.214H636Z" fill="black"/>
<path d="M708.427 500.061C703.292 500.061 698.694 498.988 694.631 496.843C690.625 494.642 687.465 491.65 685.152 487.868C682.839 484.086 681.682 479.795 681.682 474.997C681.682 470.199 682.839 465.937 685.152 462.211C687.465 458.429 690.625 455.466 694.631 453.321C698.694 451.119 703.264 450.018 708.342 450.018C713.477 450.018 718.047 451.119 722.053 453.321C726.115 455.466 729.303 458.429 731.617 462.211C733.93 465.937 735.087 470.199 735.087 474.997C735.087 479.795 733.93 484.086 731.617 487.868C729.303 491.65 726.115 494.642 722.053 496.843C718.047 498.988 713.505 500.061 708.427 500.061ZM708.342 491.001C711.445 491.001 714.182 490.323 716.552 488.969C718.978 487.557 720.868 485.638 722.222 483.211C723.576 480.783 724.253 478.045 724.253 474.997C724.253 471.892 723.548 469.155 722.138 466.784C720.783 464.356 718.921 462.465 716.552 461.111C714.182 459.756 711.474 459.078 708.427 459.078C705.38 459.078 702.643 459.756 700.217 461.111C697.791 462.465 695.872 464.356 694.462 466.784C693.108 469.155 692.431 471.892 692.431 474.997C692.431 478.045 693.108 480.783 694.462 483.211C695.872 485.638 697.791 487.557 700.217 488.969C702.643 490.323 705.352 491.001 708.342 491.001Z" fill="black"/>
<path d="M755.101 499.214L738.936 450.78H749.938L764.072 494.134H758.486L773.298 450.78H783.285L797.419 494.134H792.087L806.559 450.78H816.885L800.72 499.214H789.294L776.514 460.857H779.476L766.611 499.214H755.101Z" fill="black"/>
<path d="M822.22 480.078V471.272H845.494V480.078H822.22Z" fill="black"/>
<path d="M885.92 500.061C881.406 500.061 877.203 499.327 873.31 497.859C869.473 496.335 866.116 494.218 863.238 491.509C860.417 488.743 858.216 485.497 856.636 481.771C855.056 478.045 854.267 473.981 854.267 469.578C854.267 465.175 855.056 461.111 856.636 457.385C858.216 453.659 860.445 450.442 863.323 447.732C866.2 444.966 869.557 442.849 873.394 441.381C877.231 439.857 881.435 439.095 886.005 439.095C890.857 439.095 895.286 439.942 899.293 441.635C903.299 443.272 906.684 445.728 909.449 449.002L902.339 455.691C900.195 453.377 897.797 451.655 895.145 450.526C892.494 449.341 889.616 448.748 886.513 448.748C883.409 448.748 880.56 449.256 877.964 450.272C875.425 451.288 873.197 452.728 871.278 454.591C869.416 456.453 867.949 458.655 866.877 461.195C865.862 463.736 865.354 466.53 865.354 469.578C865.354 472.626 865.862 475.421 866.877 477.961C867.949 480.501 869.416 482.703 871.278 484.565C873.197 486.428 875.425 487.868 877.964 488.884C880.56 489.9 883.409 490.408 886.513 490.408C889.616 490.408 892.494 489.843 895.145 488.714C897.797 487.529 900.195 485.751 902.339 483.38L909.449 490.154C906.684 493.372 903.299 495.827 899.293 497.521C895.286 499.214 890.829 500.061 885.92 500.061Z" fill="black"/>
<path d="M910.786 499.214L932.791 450.78H943.37L965.291 499.214H954.712L936.261 456.199H939.816L921.196 499.214H910.786ZM921.704 488.714L924.581 480.586H949.803L952.68 488.714H921.704Z" fill="black"/>
<path d="M972.213 499.214V450.78H993.118C997.463 450.78 1001.21 451.486 1004.37 452.897C1007.53 454.252 1009.96 456.228 1011.65 458.824C1013.4 461.421 1014.28 464.554 1014.28 468.223C1014.28 471.836 1013.4 474.941 1011.65 477.537C1009.96 480.134 1007.53 482.11 1004.37 483.465C1001.21 484.819 997.463 485.497 993.118 485.497H978.138L982.877 480.84V499.214H972.213ZM1003.7 499.214L991.256 481.602H1002.77L1015.21 499.214H1003.7ZM982.877 482.11L978.984 477.114H992.356C996.08 477.114 998.873 476.352 1000.74 474.828C1002.6 473.247 1003.53 471.046 1003.53 468.223C1003.53 465.401 1002.6 463.227 1000.74 461.703C998.873 460.179 996.08 459.417 992.356 459.417H978.984L982.877 454.506V482.11Z" fill="black"/>
<path d="M1026.1 499.214V450.78H1049.63C1055.78 450.78 1060.41 451.938 1063.51 454.252C1066.67 456.566 1068.25 459.643 1068.25 463.481C1068.25 467.264 1066.95 470.255 1064.36 472.457C1061.82 474.659 1058.38 475.759 1054.03 475.759L1055.39 473.05C1060.07 473.05 1063.79 474.15 1066.56 476.352C1069.32 478.554 1070.7 481.743 1070.7 485.92C1070.7 490.098 1069.04 493.372 1065.71 495.742C1062.38 498.057 1057.5 499.214 1051.07 499.214H1026.1ZM1036.77 491.339H1050.39C1053.5 491.339 1055.87 490.831 1057.5 489.815C1059.14 488.743 1059.96 487.134 1059.96 484.989C1059.96 482.787 1059.14 481.178 1057.5 480.162C1055.87 479.146 1053.5 478.638 1050.39 478.638H1035.33V470.933H1048.45C1051.38 470.933 1053.61 470.425 1055.13 469.409C1056.71 468.336 1057.5 466.784 1057.5 464.752C1057.5 462.776 1056.71 461.28 1055.13 460.264C1053.61 459.191 1051.38 458.655 1048.45 458.655H1036.77V491.339Z" fill="black"/>
<path d="M1103.91 500.061C1098.78 500.061 1094.18 498.988 1090.12 496.843C1086.11 494.642 1082.95 491.65 1080.64 487.868C1078.33 484.086 1077.17 479.795 1077.17 474.997C1077.17 470.199 1078.33 465.937 1080.64 462.211C1082.95 458.429 1086.11 455.466 1090.12 453.321C1094.18 451.119 1098.75 450.018 1103.83 450.018C1108.96 450.018 1113.54 451.119 1117.54 453.321C1121.6 455.466 1124.79 458.429 1127.11 462.211C1129.42 465.937 1130.58 470.199 1130.58 474.997C1130.58 479.795 1129.42 484.086 1127.11 487.868C1124.79 491.65 1121.6 494.642 1117.54 496.843C1113.54 498.988 1108.99 500.061 1103.91 500.061ZM1103.83 491.001C1106.93 491.001 1109.67 490.323 1112.04 488.969C1114.47 487.557 1116.36 485.638 1117.71 483.211C1119.06 480.783 1119.74 478.045 1119.74 474.997C1119.74 471.892 1119.04 469.155 1117.63 466.784C1116.27 464.356 1114.41 462.465 1112.04 461.111C1109.67 459.756 1106.96 459.078 1103.91 459.078C1100.87 459.078 1098.13 459.756 1095.71 461.111C1093.28 462.465 1091.36 464.356 1089.95 466.784C1088.6 469.155 1087.92 471.892 1087.92 474.997C1087.92 478.045 1088.6 480.783 1089.95 483.211C1091.36 485.638 1093.28 487.557 1095.71 488.969C1098.13 490.323 1100.84 491.001 1103.83 491.001Z" fill="black"/>
<path d="M1141.24 499.214V450.78H1150.04L1179.24 486.174H1175.26V450.78H1185.84V499.214H1177.04L1147.84 463.82H1151.9V499.214H1141.24Z" fill="black"/>
<path d="M1197.36 512L1202.27 493.287L1203.71 499.553C1201.74 499.553 1200.07 498.96 1198.72 497.775C1197.42 496.533 1196.77 494.868 1196.77 492.779C1196.77 490.634 1197.42 488.94 1198.72 487.698C1200.07 486.4 1201.71 485.751 1203.63 485.751C1205.6 485.751 1207.24 486.4 1208.54 487.698C1209.83 488.997 1210.48 490.69 1210.48 492.779C1210.48 493.343 1210.43 493.964 1210.31 494.642C1210.2 495.263 1210 495.996 1209.72 496.843C1209.49 497.69 1209.1 498.763 1208.54 500.061L1204.22 512H1197.36Z" fill="black"/>
<path d="M1286.87 439.942H1297.87V499.214H1286.87V439.942ZM1256.23 499.214H1245.23V439.942H1256.23V499.214ZM1287.71 473.812H1255.3V464.413H1287.71V473.812Z" fill="black"/>
<path d="M1322.38 470.509H1346.92V478.808H1322.38V470.509ZM1323.82 490.662H1350.73V499.214H1313.15V450.78H1349.8V459.417H1323.82V490.662Z" fill="black"/>
<path d="M1353.96 499.214L1375.97 450.78H1386.55L1408.47 499.214H1397.89L1379.44 456.199H1382.99L1364.37 499.214H1353.96ZM1364.88 488.714L1367.76 480.586H1392.98L1395.86 488.714H1364.88Z" fill="black"/>
<path d="M1415.39 499.214V450.78H1426.06V490.577H1450.94V499.214H1415.39Z" fill="black"/>
<path d="M1462.3 499.214V459.502H1446.39V450.78H1488.87V459.502H1472.96V499.214H1462.3Z" fill="black"/>
<path d="M1496.56 499.214V450.78H1507.22V470.255H1530.49V450.78H1541.16V499.214H1530.49V479.062H1507.22V499.214H1496.56Z" fill="black"/>
<path d="M1567.83 499.214V479.739L1569.86 486.513L1548.2 450.78H1559.54L1576.47 478.384H1570.54L1587.47 450.78H1598.3L1576.64 486.513L1578.58 479.739V499.214H1567.83Z" fill="black"/>
<path d="M1629.31 499.214V439.942H1657.07C1664.18 439.942 1669.59 441.353 1673.32 444.176C1677.04 446.942 1678.9 450.667 1678.9 455.353C1678.9 458.514 1678.17 461.223 1676.7 463.481C1675.24 465.683 1673.26 467.405 1670.78 468.647C1668.35 469.832 1665.7 470.425 1662.82 470.425L1664.35 467.376C1667.68 467.376 1670.67 467.997 1673.32 469.239C1675.97 470.425 1678.06 472.175 1679.58 474.489C1681.16 476.804 1681.95 479.683 1681.95 483.126C1681.95 488.206 1680 492.158 1676.11 494.98C1672.22 497.803 1666.43 499.214 1658.76 499.214H1629.31ZM1640.31 490.577H1658.08C1662.2 490.577 1665.36 489.9 1667.56 488.545C1669.76 487.19 1670.86 485.017 1670.86 482.025C1670.86 479.09 1669.76 476.945 1667.56 475.59C1665.36 474.179 1662.2 473.473 1658.08 473.473H1639.46V464.921H1655.88C1659.72 464.921 1662.65 464.244 1664.69 462.889C1666.77 461.534 1667.82 459.502 1667.82 456.792C1667.82 454.026 1666.77 451.966 1664.69 450.611C1662.65 449.256 1659.72 448.579 1655.88 448.579H1640.31V490.577Z" fill="black"/>
<path d="M1714.68 500.061C1710.06 500.061 1706.08 499.214 1702.75 497.521C1699.48 495.771 1696.97 493.287 1695.22 490.069C1693.47 486.795 1692.59 482.928 1692.59 478.469V450.78H1703.26V478.13C1703.26 482.307 1704.24 485.497 1706.22 487.698C1708.19 489.9 1711.04 491.001 1714.77 491.001C1718.44 491.001 1721.23 489.928 1723.15 487.783C1725.12 485.582 1726.11 482.364 1726.11 478.13V450.78H1736.6V478.469C1736.6 482.928 1735.73 486.795 1733.98 490.069C1732.29 493.287 1729.8 495.771 1726.53 497.521C1723.26 499.214 1719.31 500.061 1714.68 500.061Z" fill="black"/>
<path d="M1750.87 499.214V450.78H1761.54V499.214H1750.87Z" fill="black"/>
<path d="M1776.25 499.214V450.78H1786.91V490.577H1811.8V499.214H1776.25Z" fill="black"/>
<path d="M1819.81 499.214V450.78H1841.73C1847.26 450.78 1852.02 451.768 1856.03 453.744C1860.09 455.72 1863.22 458.542 1865.42 462.211C1867.68 465.824 1868.81 470.086 1868.81 474.997C1868.81 479.965 1867.68 484.255 1865.42 487.868C1863.22 491.481 1860.09 494.275 1856.03 496.251C1852.02 498.226 1847.26 499.214 1841.73 499.214H1819.81ZM1830.47 490.577H1841.39C1844.83 490.577 1847.79 489.956 1850.27 488.714C1852.76 487.473 1854.68 485.694 1856.03 483.38C1857.38 481.066 1858.06 478.271 1858.06 474.997C1858.06 471.723 1857.38 468.929 1856.03 466.614C1854.68 464.3 1852.76 462.55 1850.27 461.365C1847.79 460.123 1844.83 459.502 1841.39 459.502H1830.47V490.577Z" fill="black"/>
<path d="M1879.56 499.214V450.78H1890.23V499.214H1879.56Z" fill="black"/>
<path d="M1904.94 499.214V450.78H1913.74L1942.94 486.174H1938.96V450.78H1949.54V499.214H1940.74L1911.54 463.82H1915.6V499.214H1904.94Z" fill="black"/>
<path d="M2006.6 493.88C2004.96 495.178 2003.07 496.307 2000.93 497.267C1998.84 498.17 1996.64 498.847 1994.33 499.299C1992.01 499.807 1989.67 500.061 1987.3 500.061C1982.11 500.061 1977.46 498.988 1973.34 496.843C1969.27 494.642 1966.09 491.65 1963.77 487.868C1961.46 484.086 1960.3 479.795 1960.3 474.997C1960.3 470.199 1961.46 465.937 1963.77 462.211C1966.09 458.429 1969.25 455.466 1973.25 453.321C1977.32 451.119 1981.91 450.018 1987.05 450.018C1991.56 450.018 1995.51 450.696 1998.9 452.05C2002.28 453.349 2005.1 455.381 2007.36 458.147L2000.42 464.836C1998.67 462.861 1996.7 461.421 1994.5 460.518C1992.3 459.558 1989.87 459.078 1987.22 459.078C1984.11 459.078 1981.32 459.756 1978.84 461.111C1976.41 462.465 1974.49 464.356 1973.08 466.784C1971.73 469.155 1971.05 471.892 1971.05 474.997C1971.05 478.102 1971.76 480.868 1973.17 483.295C1974.58 485.723 1976.53 487.614 1979.01 488.969C1981.49 490.323 1984.34 491.001 1987.56 491.001C1990.1 491.001 1992.41 490.606 1994.5 489.815C1996.64 489.025 1998.64 487.84 2000.51 486.259L2006.6 493.88ZM1996.53 493.964V474.574H2006.6V493.88L1996.53 493.964Z" fill="black"/>
<path d="M2055.62 484.904C2055.62 487.952 2054.78 490.606 2053.08 492.864C2051.45 495.122 2049.11 496.9 2046.06 498.198C2043.01 499.44 2039.29 500.061 2034.89 500.061C2031.11 500.061 2027.38 499.553 2023.72 498.537C2020.11 497.521 2017.2 496.194 2015 494.557L2018.98 486.259C2021.01 487.783 2023.49 488.997 2026.42 489.9C2029.36 490.803 2032.35 491.255 2035.4 491.255C2039.01 491.255 2041.52 490.718 2042.93 489.646C2044.34 488.573 2045.04 487.303 2045.04 485.836C2045.04 484.481 2044.51 483.408 2043.44 482.618C2042.42 481.828 2041.04 481.207 2039.29 480.755C2037.6 480.247 2035.73 479.795 2033.7 479.4C2031.67 478.949 2029.64 478.441 2027.61 477.876C2025.58 477.312 2023.72 476.521 2022.02 475.505C2020.33 474.489 2018.95 473.134 2017.88 471.441C2016.86 469.747 2016.35 467.602 2016.35 465.006C2016.35 462.014 2017.2 459.389 2018.89 457.131C2020.58 454.873 2022.95 453.123 2026 451.881C2029.1 450.639 2032.74 450.018 2036.92 450.018C2039.91 450.018 2042.9 450.357 2045.89 451.034C2048.94 451.655 2051.59 452.7 2053.85 454.167L2050.21 462.465C2048.06 461.054 2045.81 460.094 2043.44 459.586C2041.12 459.022 2038.84 458.74 2036.58 458.74C2033.2 458.74 2030.74 459.276 2029.22 460.349C2027.75 461.421 2027.02 462.776 2027.02 464.413C2027.02 465.768 2027.53 466.84 2028.54 467.631C2029.61 468.421 2031 469.07 2032.69 469.578C2034.38 470.03 2036.24 470.453 2038.27 470.848C2040.36 471.243 2042.39 471.751 2044.37 472.372C2046.4 472.937 2048.26 473.727 2049.95 474.743C2051.7 475.703 2053.08 477.001 2054.1 478.638C2055.12 480.275 2055.62 482.364 2055.62 484.904Z" fill="black"/>
<path d="M638.845 309.543V6.06947H724.645V241.478H869.378V309.543H638.845Z" fill="black"/>
<path d="M1119.24 315.613C1095.26 315.613 1073.02 311.855 1052.51 304.341C1032.29 296.537 1014.66 285.554 999.642 271.392C984.909 257.23 973.353 240.611 964.976 221.536C956.598 202.171 952.409 180.928 952.409 157.806C952.409 134.684 956.598 113.586 964.976 94.5104C973.353 75.1459 984.909 58.3826 999.642 44.2204C1014.66 30.0583 1032.29 19.22 1052.51 11.7054C1073.02 3.90181 1095.26 0 1119.24 0C1147.26 0 1172.25 4.91339 1194.21 14.7402C1216.45 24.5669 1234.94 38.729 1249.68 57.2265L1195.08 106.649C1185.25 95.0884 1174.42 86.2732 1162.58 80.2037C1151.02 74.1343 1138.02 71.0996 1123.58 71.0996C1111.15 71.0996 1099.74 73.1227 1089.34 77.169C1078.94 81.2153 1069.99 87.1403 1062.48 94.9439C1055.25 102.458 1049.48 111.563 1045.14 122.257C1041.1 132.95 1039.08 144.8 1039.08 157.806C1039.08 170.812 1041.1 182.662 1045.14 193.356C1049.48 204.05 1055.25 213.299 1062.48 221.102C1069.99 228.617 1078.94 234.397 1089.34 238.444C1099.74 242.49 1111.15 244.513 1123.58 244.513C1138.02 244.513 1151.02 241.478 1162.58 235.409C1174.42 229.339 1185.25 220.524 1195.08 208.963L1249.68 258.386C1234.94 276.595 1216.45 290.757 1194.21 300.872C1172.25 310.699 1147.26 315.613 1119.24 315.613Z" fill="black"/>
<path d="M1560.06 6.06947H1645.86V309.543H1560.06V6.06947ZM1443.06 309.543H1357.26V6.06947H1443.06V309.543ZM1566.13 191.188H1437V120.089H1566.13V191.188Z" fill="black"/>
<path d="M1775.72 309.543V6.06947H1930.85C1970.72 6.06947 2000.47 13.4395 2020.12 28.1797C2039.76 42.6308 2049.58 61.7063 2049.58 85.4062C2049.58 101.013 2045.4 114.742 2037.02 126.592C2028.93 138.153 2017.37 147.401 2002.35 154.338C1987.62 160.986 1970 164.309 1949.48 164.309L1958.15 143.5C1979.53 143.5 1998.16 146.823 2014.05 153.471C2029.94 159.829 2042.22 169.223 2050.88 181.651C2059.84 193.79 2064.32 208.674 2064.32 226.305C2064.32 252.606 2053.63 273.126 2032.25 287.866C2011.16 302.318 1980.25 309.543 1939.52 309.543H1775.72ZM1860.65 247.548H1932.58C1947.32 247.548 1958.44 245.091 1965.95 240.178C1973.75 234.975 1977.65 227.172 1977.65 216.767C1977.65 206.362 1973.75 198.703 1965.95 193.79C1958.44 188.587 1947.32 185.986 1932.58 185.986H1854.58V126.592H1919.58C1934.03 126.592 1944.86 124.135 1952.08 119.222C1959.31 114.308 1962.92 106.938 1962.92 97.1116C1962.92 87.2848 1959.31 80.0592 1952.08 75.4349C1944.86 70.5215 1934.03 68.0648 1919.58 68.0648H1860.65V247.548Z" fill="black"/>
<defs>
<linearGradient id="paint0_linear_185_7" x1="254.8" y1="104.35" x2="254.8" y2="405.801" gradientUnits="userSpaceOnUse">
<stop stop-color="#AAEBF1"/>
<stop offset="1" stop-color="#479DA5"/>
</linearGradient>
</defs>
</svg>
