<svg width="512" height="512" viewBox="0 0 512 512" fill="none" xmlns="http://www.w3.org/2000/svg">
<path fill-rule="evenodd" clip-rule="evenodd" d="M139 109.5L256.5 49.5L371 109L372.345 236.996C363.17 239.256 354.027 241.842 345 244.779V242L326 234.5V251.564C318.689 254.42 311.499 257.528 304.479 260.901C270.083 277.429 238.796 300.795 217.713 333.08C197.326 364.3 187.265 402.684 191.936 448.626C173.075 442.353 155.238 433.344 139 421.891V109.5ZM208 111.5L228 102V133L208 143V111.5ZM227 161L208 169V200.5L227 193V161ZM183 178L164 186V217.5L183 210V178ZM182.5 291L164 299V330L182.5 323.5V291ZM208 285L226.5 277V309.5L208 316V285ZM183 234.5L164 242V274L183 267V234.5ZM208 226.5L227 219V251.5L208 258.5V226.5ZM301 226.5L282 219V251.5L301 258.5V226.5ZM345 187L326 179V211L345 218.5V187ZM282 162L301 170V201.5L282 194V162ZM184 120.5L164 130V161.5L184 151.5V120.5ZM301 111.5L281 102V133L301 143V111.5ZM325 120.5L345 130V161.5L325 151.5V120.5Z" fill="#15333B"/>
<path fill-rule="evenodd" clip-rule="evenodd" d="M477.744 224.085C462.253 115.49 368.876 32 256 32C132.288 32 32 132.288 32 256C32 359.381 102.035 446.405 197.248 472.216C205.732 492.472 223.352 504.581 241.41 511.591C106.813 504.029 0 392.488 0 256C0 114.615 114.615 0 256 0C386.994 0 495.009 98.3875 510.178 225.297C500.14 224.464 489.248 224.038 477.744 224.085Z" fill="#15333B"/>
<path fill-rule="evenodd" clip-rule="evenodd" d="M53 256C53 196.686 78.4382 143.314 119 106.198V405.801C78.4382 368.685 53 315.313 53 256ZM456.6 224.686C449.231 177.094 425.331 134.965 390.952 104.35L392.3 232.592C414.289 228.284 436.11 225.755 456.6 224.686Z" fill="url(#paint0_linear_162_102)"/>
<path fill-rule="evenodd" clip-rule="evenodd" d="M511.7 243.5C511.899 247.642 512 251.809 512 256C512 374.022 432.134 473.39 323.5 503.008C298.187 505.269 250.315 504.113 225.629 481.623L227.5 482.51C362 442.5 483.091 246.293 457 277.51C394.877 351.839 286.437 439.448 210.523 452.674C210.515 452.616 210.507 452.558 210.5 452.5C187.5 273.5 404.5 233.5 511.7 243.5Z" fill="#00994C"/>
<path fill-rule="evenodd" clip-rule="evenodd" d="M414.392 97.6081L437.019 74.9807C436.816 74.7771 436.612 74.5738 436.408 74.3709C412.764 50.8863 384.76 32.2419 353.967 19.4869C322.908 6.62164 289.618 0 256 0V32C317.856 32 373.856 57.0721 414.392 97.6081Z" fill="#BE132D"/>
<path fill-rule="evenodd" clip-rule="evenodd" d="M75.6083 74.355C75.4195 74.5425 75.231 74.7303 75.0428 74.9184C75.022 74.9391 75.0012 74.9599 74.9805 74.9807L97.6079 97.6081C138.144 57.0721 194.144 32 256 32L256 1.19355e-10C222.382 -3.24617e-05 189.092 6.62159 158.033 19.4868C127.247 32.2389 99.2486 50.8778 75.6083 74.355Z" fill="#002F6C"/>
<defs>
<linearGradient id="paint0_linear_162_102" x1="254.8" y1="104.35" x2="254.8" y2="405.801" gradientUnits="userSpaceOnUse">
<stop stop-color="#AAEBF1"/>
<stop offset="1" stop-color="#479DA5"/>
</linearGradient>
</defs>
</svg>
