<svg width="3898" height="1325" viewBox="0 0 3898 1325" fill="none" xmlns="http://www.w3.org/2000/svg">
<path d="M1224.5 978.77L1161.41 1041.85V1261.6L1224.5 1324.68H1362.85L1425.93 1261.6V1041.85L1362.85 978.77H1224.5ZM1344.54 1236.17L1329.29 1251.42H1257.56L1242.8 1236.17V1067.28L1258.07 1052.03H1329.29L1344.54 1067.28V1236.17Z" fill="white"/>
<path d="M1470.55 1324.69H1551.96V1195.97H1674.03V1122.74H1551.96V1052.03H1714.73V978.774H1470.55V1324.69Z" fill="white"/>
<path d="M1920.26 978.77L1857.18 1041.85V1261.6L1920.26 1324.68H2058.61L2121.71 1261.6V1041.85L2058.61 978.77H1920.26ZM2040.3 1236.17L2025.05 1251.42H1953.34L1938.57 1236.17V1067.28L1953.82 1052.03H2025.05L2040.3 1067.28V1236.17Z" fill="white"/>
<path d="M2559.4 978.77H2478.02V1324.68H2701.84V1251.42H2559.4V978.77Z" fill="white"/>
<path d="M2346.89 1233.64L2331.64 1248.89H2260.43L2245.18 1233.64V978.769H2163.77V1261.6L2226.87 1324.68H2365.2L2428.3 1261.6V978.769H2346.89V1233.64Z" fill="white"/>
<path d="M2914.36 1233.64L2899.11 1248.89H2827.9L2812.65 1233.64V978.769H2731.24V1261.6L2794.34 1324.68H2932.67L2995.77 1261.6V978.769H2914.36V1233.64Z" fill="white"/>
<path d="M1682.18 883.801H1770.69V537.89H1689.3L1694.39 756.116L1564.15 537.89H1475.64V883.801H1557.03L1551.96 665.575L1682.18 883.801Z" fill="white"/>
<path d="M1820.41 883.808H1901.8V537.896H1820.41V883.808Z" fill="white"/>
<path d="M2086.31 810.541H2084.29L2008.48 537.889H1926.07L2022.73 883.8H2147.87L2244.51 537.889H2162.12L2086.31 810.541Z" fill="white"/>
<path d="M2523.16 611.145V537.886H2268.79V883.797H2523.16V810.541H2350.2V744.927H2482.45V671.667H2350.2V611.145H2523.16Z" fill="white"/>
<path d="M2832.29 702.189V600.964L2769.2 537.886H2567.77V883.797H2649.16V765.286H2695.43L2755.47 883.797H2842.46L2777.87 756.615L2832.29 702.189ZM2750.89 676.756L2736.16 692.026H2649.16V611.145H2735.63L2750.89 626.397V676.756Z" fill="white"/>
<path d="M2952.72 658.952V626.396L2967.97 611.144H3118.55V537.885H2934.41L2871.31 600.963V681.848L2907.45 725.089L3044.27 762.733V795.289L3029.03 810.541H2864.19V883.8H3062.6L3125.67 820.722V739.855L3089.56 696.615L2952.72 658.952Z" fill="white"/>
<path d="M3162.67 883.808H3244.05V537.896H3162.67V883.808Z" fill="white"/>
<path d="M3278.52 611.145H3375.16V883.797H3456.55V611.145H3553.2V537.886H3278.52V611.145Z" fill="white"/>
<path d="M3805.88 537.885L3728.54 698.126H3726.53L3649.19 537.885H3557.13L3684.29 777.481V883.796H3770.77V777.481L3897.95 537.885H3805.88Z" fill="white"/>
<path d="M1344.52 792.75L1329.27 808.002H1258.06L1242.81 792.75V537.884H1161.4V820.717L1224.5 883.795H1362.83L1425.93 820.717V537.884H1344.52V792.75Z" fill="white"/>
<path d="M202.321 1005.94L237.795 1324.68H695.866L731.336 1005.94H803.769H933.318V537.854H674.221V575.817V718.124H596.395V537.854H337.266V718.124H259.469V537.854H0.339844V1005.94H144.107H202.321ZM76.2287 613.776H183.551V794.046H236.277H413.184V613.776H520.473V794.046H572.651H697.384H750.106V613.776H857.429V930.054H803.769H712.147H663.429L627.958 1248.79H305.732L270.229 930.054H221.51H144.107H76.2287V613.776Z" fill="white"/>
<path d="M895.443 150.404L843.365 98.3264L838.617 103.075L619.225 322.467L671.302 374.545L895.443 150.404Z" fill="white"/>
<path d="M262.36 374.55L314.437 322.472L90.2965 98.3313L38.2188 150.409L42.9669 155.157L262.36 374.55Z" fill="white"/>
<path d="M502.118 0.119502H428.492V6.83803V317.108H502.118V0.119502Z" fill="white"/>
</svg>
