<svg width="24" height="24" viewBox="0 0 24 24" fill="none" xmlns="http://www.w3.org/2000/svg">
<path d="M21.168 8C19.6245 4.468 16.1 2 12 2C7.90003 2 4.37503 4.468 2.83203 8" stroke="black" stroke-linecap="round" stroke-linejoin="round"/>
<path d="M11.391 6.73521C8.05512 10.6313 8.05512 15.5133 11.391 19.4093C11.7502 19.8288 12.392 19.8288 12.7512 19.4093C16.087 15.5133 16.087 10.6313 12.7512 6.73521C12.392 6.31569 11.7502 6.31569 11.391 6.73521Z" stroke="#00994C" stroke-width="2" stroke-linecap="round"/>
<path d="M2.99992 12.0381C8.11365 12.4342 11.5658 15.8864 11.9619 21.0001C12.0045 21.5507 11.5507 22.0045 11.0001 21.9619C5.88636 21.5658 2.43424 18.1136 2.03813 12.9999C1.99548 12.4493 2.44928 11.9955 2.99992 12.0381Z" fill="white" stroke="black" stroke-linecap="round"/>
<path d="M21.0001 12.0381C15.8864 12.4342 12.4342 15.8864 12.0381 21.0001C11.9955 21.5507 12.4493 22.0045 12.9999 21.9619C18.1136 21.5658 21.5658 18.1136 21.9619 12.9999C22.0045 12.4493 21.5507 11.9955 21.0001 12.0381Z" fill="white" stroke="black" stroke-linecap="round"/>
</svg>
